<?xml version="1.0" encoding="utf-8"?>
<!-- Generator: Adobe Illustrator 24.3.0, SVG Export Plug-In . SVG Version: 6.00 Build 0)  -->
<svg version="1.1" id="Camada_1" xmlns="http://www.w3.org/2000/svg" xmlns:xlink="http://www.w3.org/1999/xlink" x="0px" y="0px"
	 viewBox="0 0 1080 854.61" style="enable-background:new 0 0 1080 854.61;" xml:space="preserve">
<style type="text/css">
	.st0{fill:#196EFF;}
	.st1{fill:#3490FF;}
	.st2{fill:#4CB2FC;}
	.st3{fill:#50DEFF;}
	.st4{opacity:0.34;fill:#222229;enable-background:new    ;}
	.st5{fill:#FFFFFF;}
</style>
<g id="Camada_1_1_">
</g>
<g id="Camada_2_1_">
</g>
<g id="Camada_4">
</g>
<g id="Camada_5">
</g>
<g id="Camada_3">
	<g>
		<path class="st0" d="M215.71,555.01c0,0-17.43-161.91,148.24-253.58c35.57-19.68,75.09-29.61,114.28-40.43
			c96.29-26.59,334.13-71.07,393.74-173.52c0,0,6.54,75.71-163.99,147.58c-26.86,11.32-54.52,20.63-82.69,28.1
			c-71.45,18.93-286.8,84.93-341.72,205.19c0,0,127.52-50.01,219.4-22.1c61.4,18.66,107.66,103.35,49.34,150.08
			c-0.44,0.35-0.83,0.78-1.26,1.16c0,0-56.43-128.71-224.5-108.17c-43.86,5.36-83.53,28.82-109.83,64.33
			C216.39,554.1,216.05,554.55,215.71,555.01z"/>
		<path class="st0" d="M325.76,430.71c0,0,85.31-63.17,300.07-138.55c9.27-3.25,18.66-6.25,28.06-9.08
			c38.28-11.52,170.64-60.12,234.04-172.79c0,0,90.09,143.11-131.14,201.84C756.8,312.12,383.91,403.34,325.76,430.71z"/>
		<path class="st1" d="M379.35,425.01c0,0,478.94-87.81,529.11-172.19c0,0,29.65,70.7-66.14,108.33
			C842.33,361.15,776.19,395.36,379.35,425.01z"/>
		<path class="st2" d="M486.54,428.43c0,0,359.2-14.82,421.92-76.4c0,0-1.11,117.54-218.74,91.28c-6.22-0.75-12.45-1.42-18.7-1.86
			L486.54,428.43z"/>
		<path class="st3" d="M573.21,454.66c0,0,226.93,36.49,297.63-15.96c0,0-0.83,60.73-70.01,76.32c-20.13,4.54-41.07,3.88-61.19-0.71
			C700.85,505.46,614.11,483.38,573.21,454.66z"/>
		<path class="st0" d="M200.64,705.31l36.31-50.76c0,0-64.38-86.05,47.37-141.36c0,0,54.67-30.4,144.38-3.86
			c23.42,6.93,45.31,18.72,62.99,35.58c28.13,26.82,52.37,71.86-8.96,126.22c0,0-74.44,70.38-195.16,21.31L200.64,705.31z"/>
		<path class="st4" d="M218.34,593.15c-0.74,15.51,3.76,39.17,12.42,52.77c3.17-32.64,22.52-71.68,48.64-91.75
			c21.6-16.6,47.38-26.84,74.17-32.36c8.39-1.73,16.87-2.99,25.35-3.87c25.06-2.55,50.27-1.76,75.39,0.23
			c-22.85-10.97-50.17-17.96-79.76-19.37c-2.84-0.14-5.63-0.22-8.43-0.25C286.31,497.69,220.92,538.96,218.34,593.15z"/>
		<g>
			<path class="st3" d="M291.18,598.3v7.75h-31v0.01h-7.75v-7.76H291.18z M291.18,610.59v6.32h-31v0.01h-7.75v-6.33H291.18z
				 M291.18,621.55v7.75h-38.75v-7.75H291.18z"/>
			<path class="st3" d="M332.45,608.34v10.91c0,0.77-0.09,1.52-0.25,2.24c0,0.02-0.01,0.04-0.01,0.05c-0.86,3.7-3.78,6.62-7.49,7.49
				c-0.41,0.1-0.82,0.17-1.25,0.21c-0.34,0.04-0.69,0.05-1.05,0.05h-18.66c-0.35,0-0.7-0.02-1.05-0.05
				c-0.42-0.04-0.84-0.11-1.25-0.21c-3.7-0.87-6.62-3.78-7.49-7.49c-0.06-0.27-0.12-0.55-0.16-0.83c-0.07-0.48-0.11-0.97-0.11-1.47
				v-10.91c0-0.5,0.04-0.99,0.11-1.47c0.04-0.28,0.09-0.55,0.16-0.82c0.86-3.71,3.78-6.62,7.49-7.49c0.04-0.01,0.07-0.02,0.11-0.02
				c0.7-0.16,1.43-0.24,2.19-0.24h18.66c0.79,0,1.56,0.09,2.29,0.26c3.71,0.86,6.62,3.78,7.49,7.49
				C332.36,606.79,332.45,607.55,332.45,608.34z M321.72,621.55c1.65,0,2.98-1.33,2.98-2.98v-9.54c0-1.65-1.33-2.98-2.98-2.98
				h-17.29c-1.65,0-2.98,1.33-2.98,2.98v9.54c0,1.65,1.33,2.98,2.98,2.98H321.72z"/>
			<path class="st3" d="M373.76,598.3v7.75h-38.75v-7.75H373.76z M335.01,610.79h38.75v18.51h-38.75v-7.75h31v-3.88h-31V610.79z"/>
			<path class="st5" d="M415.55,617.81c0.1,0.56,0.15,1.13,0.15,1.71c0,0.68-0.07,1.35-0.2,1.99c-0.86,4.16-4.36,7.36-8.68,7.75
				c-0.29,0.03-0.59,0.04-0.89,0.04c-0.3,0-0.6-0.01-0.89-0.04H384.6v0.04h-7.75v-7.79h0.01v-3.7h-0.01v-7.67h0.01v-4.2h-0.01v-7.67
				h29.07c4.7,0,8.63,3.32,9.56,7.75c0.14,0.65,0.21,1.33,0.21,2.02s-0.07,1.37-0.21,2.03c-0.29,1.37-0.86,2.63-1.65,3.72
				C414.69,614.95,415.29,616.32,415.55,617.81z M407.95,608.03c0-1.12-0.91-2.02-2.02-2.02h-5.73v-0.08h-15.58v4.2h15.58v-0.08
				h5.73c0.36,0,0.7-0.09,0.99-0.26C407.53,609.45,407.95,608.79,407.95,608.03z M407.95,619.52c0-0.72-0.38-1.35-0.95-1.71h-22.39
				v3.7h21.72C407.25,621.32,407.95,620.5,407.95,619.52z"/>
			<path class="st5" d="M456.34,608.34v10.91c0,0.77-0.09,1.52-0.25,2.24c0,0.02-0.01,0.04-0.01,0.05c-0.86,3.7-3.78,6.62-7.49,7.49
				c-0.41,0.1-0.82,0.17-1.25,0.21c-0.34,0.04-0.69,0.05-1.05,0.05h-18.66c-0.35,0-0.7-0.02-1.05-0.05
				c-0.42-0.04-0.84-0.11-1.25-0.21c-3.7-0.87-6.62-3.78-7.49-7.49c-0.06-0.27-0.12-0.55-0.16-0.83c-0.07-0.48-0.11-0.97-0.11-1.47
				v-10.91c0-0.5,0.04-0.99,0.11-1.47c0.04-0.28,0.09-0.55,0.16-0.82c0.86-3.71,3.78-6.62,7.49-7.49c0.04-0.01,0.07-0.02,0.11-0.02
				c0.7-0.16,1.43-0.24,2.19-0.24h18.66c0.79,0,1.56,0.09,2.29,0.26c3.71,0.86,6.62,3.78,7.49,7.49
				C456.25,606.79,456.34,607.55,456.34,608.34z M445.61,621.55c1.65,0,2.98-1.33,2.98-2.98v-9.54c0-1.65-1.33-2.98-2.98-2.98
				h-17.29c-1.65,0-2.98,1.33-2.98,2.98v9.54c0,1.65,1.33,2.98,2.98,2.98H445.61z"/>
			<path class="st5" d="M495.97,606.05h-15.5v23.25h-7.75v-23.25h-15.5v-7.75h38.75V606.05z"/>
		</g>
	</g>
</g>
<g id="Camada_6">
</g>
</svg>
