<?xml version="1.0" encoding="utf-8"?>
<!-- Generator: Adobe Illustrator 24.3.0, SVG Export Plug-In . SVG Version: 6.00 Build 0)  -->
<svg version="1.1" id="Camada_1" xmlns="http://www.w3.org/2000/svg" xmlns:xlink="http://www.w3.org/1999/xlink" x="0px" y="0px"
	 viewBox="0 0 1080 447.65" style="enable-background:new 0 0 1080 447.65;" xml:space="preserve">
<style type="text/css">
	.st0{fill:#196EFF;}
	.st1{fill:#3490FF;}
	.st2{fill:#4CB2FC;}
	.st3{fill:#50DEFF;}
	.st4{opacity:0.34;fill:#222229;enable-background:new    ;}
</style>
<g id="Camada_1_1_">
</g>
<g id="Camada_2_1_">
</g>
<g id="Camada_4">
</g>
<g id="Camada_5">
</g>
<g id="Camada_3">
</g>
<g id="Camada_6">
	<g>
		<g>
			<path class="st0" d="M621.68,282.59c0,0-15.95-64.73,46.23-111.01c13.35-9.94,28.84-16.13,44.15-22.67
				c37.61-16.07,131.66-47.17,150.22-92c0,0,6.81,30.36-58.44,68.87c-10.28,6.07-20.99,11.36-32.01,15.94
				c-27.95,11.6-111.7,50.19-127.38,102c0,0,48.99-27.29,87.8-21c25.94,4.2,49.35,36.02,28.25,58.18c-0.16,0.17-0.3,0.36-0.45,0.54
				c0,0-29.96-49.12-97.02-31.57c-17.5,4.58-32.31,16.28-41.03,32.13C621.91,282.18,621.79,282.38,621.68,282.59z"/>
			<path class="st0" d="M659.51,226.12c0,0,31.15-30.31,114.14-72.68c3.58-1.83,7.23-3.56,10.89-5.23
				c14.9-6.77,65.93-33.75,85.47-82.95c0,0,44.4,53.12-42.13,89.08C827.88,154.36,681.6,211.83,659.51,226.12z"/>
			<path class="st1" d="M680.94,220.87c0,0,189.49-61.9,205.22-98.89c0,0,15.91,27.06-20.89,47.58
				C865.27,169.56,840.32,187.07,680.94,220.87z"/>
			<path class="st2" d="M724.62,216.38c0,0,144.92-25.72,166.99-54.15c0,0,6,47.75-83.74,49.04c-2.57,0.04-5.13,0.11-7.69,0.27
				L724.62,216.38z"/>
			<path class="st3" d="M761.22,222.26c0,0,94.07,2.35,119.88-22.81c0,0,2.99,24.69-24.22,34.8c-7.92,2.94-16.45,3.83-24.86,3.07
				C815.79,235.87,779.39,231.67,761.22,222.26z"/>
			<path class="st0" d="M623.81,344.4l11.95-22.59c0,0-30.84-31.38,11.46-59.95c0,0,20.51-15.33,58.37-9.49
				c9.88,1.53,19.41,5.11,27.51,10.98c12.88,9.34,25.19,26.28,3.29,51.7c0,0-26.34,32.64-78.01,19.36L623.81,344.4z"/>
			<path class="st4" d="M624.84,297.92c0.55,6.33,3.67,15.69,7.94,20.73c-0.5-13.41,5.2-30.32,14.7-39.9
				c7.85-7.92,17.75-13.49,28.32-17.2c3.31-1.16,6.68-2.14,10.07-2.96c10.03-2.41,20.3-3.47,30.6-4.04
				c-9.87-3.2-21.34-4.53-33.42-3.48c-1.16,0.1-2.3,0.22-3.43,0.36C647.18,255.46,622.92,275.79,624.84,297.92z"/>
		</g>
		<g>
			<g>
				<path class="st0" d="M302.39,249.91v19.64h-78.56v0.02h-19.64v-19.66L302.39,249.91L302.39,249.91z M302.39,281.04v16.01h-78.56
					v0.04h-19.64v-16.05L302.39,281.04L302.39,281.04z M302.39,308.83v19.64h-98.2v-19.64L302.39,308.83L302.39,308.83z"/>
				<path class="st0" d="M406.99,275.36v27.66c0,1.95-0.22,3.85-0.64,5.67c-0.01,0.05-0.02,0.09-0.03,0.14
					c-2.19,9.39-9.58,16.78-18.97,18.97c-1.03,0.24-2.09,0.42-3.16,0.53c-0.87,0.09-1.75,0.14-2.65,0.14h-47.3
					c-0.9,0-1.78-0.05-2.65-0.14c-1.08-0.11-2.13-0.29-3.16-0.53c-9.39-2.19-16.78-9.58-18.97-18.97c-0.16-0.69-0.29-1.39-0.4-2.09
					c-0.18-1.21-0.27-2.46-0.27-3.72v-27.66c0-1.26,0.09-2.5,0.27-3.72c0.1-0.71,0.23-1.4,0.4-2.09
					c2.19-9.39,9.58-16.78,18.97-18.97c0.09-0.02,0.18-0.04,0.27-0.06c1.78-0.4,3.64-0.61,5.54-0.61h47.3c2,0,3.95,0.23,5.81,0.67
					c9.39,2.19,16.78,9.58,18.97,18.97C406.76,271.42,406.99,273.36,406.99,275.36z M379.8,308.83c4.17,0,7.55-3.38,7.55-7.56V277.1
					c0-4.17-3.38-7.55-7.55-7.55h-43.81c-4.17,0-7.56,3.38-7.56,7.55v24.17c0,4.17,3.38,7.56,7.56,7.56L379.8,308.83L379.8,308.83z"
					/>
				<path class="st0" d="M511.7,249.91v19.64h-98.2v-19.64L511.7,249.91L511.7,249.91z M413.5,281.57h98.2v46.9h-98.2v-19.64h78.56
					v-9.82H413.5V281.57z"/>
			</g>
		</g>
		<g>
			<g>
				<path class="st0" d="M615.69,299.35c0.25,1.41,0.38,2.86,0.38,4.34c0,1.73-0.18,3.41-0.51,5.04
					c-2.18,10.55-11.06,18.65-21.99,19.64c-0.74,0.07-1.5,0.1-2.26,0.1s-1.52-0.04-2.26-0.1h-51.77v0.1h-19.64v-19.74h0.02v-9.37
					h-0.02v-19.45h0.02v-10.65h-0.02v-19.45h73.68c11.92,0,21.88,8.42,24.24,19.64c0.35,1.66,0.53,3.37,0.53,5.13
					s-0.18,3.48-0.54,5.14c-0.73,3.46-2.18,6.66-4.19,9.42C613.51,292.11,615.03,295.59,615.69,299.35z M596.43,274.58
					c0-2.83-2.3-5.13-5.13-5.13h-14.53v-0.19h-39.48v10.65h39.48v-0.19h14.53c0.92,0,1.78-0.24,2.52-0.66
					C595.38,278.17,596.43,276.49,596.43,274.58z M596.43,303.69c0-1.82-0.96-3.43-2.4-4.34h-56.74v9.37h55.04
					C594.67,308.25,596.43,306.17,596.43,303.69z"/>
			</g>
		</g>
		<g>
			<g>
				<path class="st0" d="M871.21,269.55h-39.28v58.92h-19.64v-58.92h-39.28v-19.64h98.2V269.55z"/>
			</g>
		</g>
	</g>
</g>
</svg>
